<?xml version="1.0" standalone="no"?><!DOCTYPE svg PUBLIC "-//W3C//DTD SVG 1.1//EN" "http://www.w3.org/Graphics/SVG/1.1/DTD/svg11.dtd"><svg t="1615880448713" class="icon" viewBox="0 0 1024 1024" version="1.1" xmlns="http://www.w3.org/2000/svg" p-id="10816" width="64" height="64" xmlns:xlink="http://www.w3.org/1999/xlink"><defs><style type="text/css"></style></defs><path d="M764.839506 271.802469H259.160494a69.530864 69.530864 0 0 0-69.530864 69.530864v429.827161a69.530864 69.530864 0 0 0 69.530864 69.530864h505.679012a69.530864 69.530864 0 0 0 69.530864-69.530864V341.333333a69.530864 69.530864 0 0 0-69.530864-69.530864z m-505.679012 37.925926h505.679012a31.604938 31.604938 0 0 1 31.604938 31.604938v429.827161a31.604938 31.604938 0 0 1-31.604938 31.604938H259.160494a31.604938 31.604938 0 0 1-31.604938-31.604938V341.333333a31.604938 31.604938 0 0 1 31.604938-31.604938z" fill="#8a8a8a" p-id="10817"></path><path d="M631.643654 466.678519a18.962963 18.962963 0 0 1 27.521581 26.017185l-1.327408 1.415901-163.296395 155.913481a18.962963 18.962963 0 0 1-24.436938 1.491754l-1.517037-1.264198-95.864099-88.493827a18.962963 18.962963 0 0 1 24.222025-29.114469l1.491753 1.238913 82.779654 76.420741 150.439506-143.61284z" fill="#8a8a8a" p-id="10818"></path><path d="M335.012346 227.555556m18.962963 0l0 0q18.962963 0 18.962963 18.962963l0 75.851851q0 18.962963-18.962963 18.962963l0 0q-18.962963 0-18.962963-18.962963l0-75.851851q0-18.962963 18.962963-18.962963Z" fill="#8a8a8a" p-id="10819"></path><path d="M651.061728 227.555556m18.962963 0l0 0q18.962963 0 18.962963 18.962963l0 75.851851q0 18.962963-18.962963 18.962963l0 0q-18.962963 0-18.962963-18.962963l0-75.851851q0-18.962963 18.962963-18.962963Z" fill="#8a8a8a" p-id="10820"></path></svg>