<?xml version="1.0" encoding="utf-8"?>
<!-- Generator: Adobe Illustrator 24.0.1, SVG Export Plug-In . SVG Version: 6.00 Build 0)  -->
<svg version="1.1" xmlns="http://www.w3.org/2000/svg" xmlns:xlink="http://www.w3.org/1999/xlink" x="0px" y="0px"
	 viewBox="0 0 286.44 197.11" style="enable-background:new 0 0 286.44 197.11;" xml:space="preserve">
<g id="Layer_1">
	<g>
		<g>
			<path style="fill:#B22234;" d="M138.74,26.89H48.51c2.77-1.75,5.65-3.39,8.64-4.8c0.56-0.23,1.07-0.51,1.64-0.73
				c0.45-0.23,0.96-0.45,1.41-0.62c0.56-0.28,1.13-0.51,1.69-0.73c9.66-3.9,20.22-6.1,31.28-6.16h0.45
				C110.23,13.85,125.7,18.65,138.74,26.89z"/>
			<path style="fill:#FFFFFF;" d="M154.67,39.94H32.58c4.74-5.03,10.05-9.37,15.92-13.04h90.24
				C144.62,30.57,149.93,34.91,154.67,39.94z"/>
			<path style="fill:#B22234;" d="M164.95,52.93H22.3c0.79-1.24,1.58-2.43,2.43-3.61c0.17-0.23,0.28-0.4,0.4-0.56
				c2.32-3.11,4.74-6.04,7.45-8.81h122.09C158.51,43.89,161.95,48.24,164.95,52.93z"/>
			<path style="fill:#FFFFFF;" d="M171.84,65.97H15.41c0.51-1.19,1.02-2.37,1.58-3.56c0.73-1.53,1.52-3.05,2.32-4.57
				c0.96-1.69,1.92-3.33,2.99-4.91h142.64C167.6,57.05,169.92,61.4,171.84,65.97z"/>
			<path style="fill:#B22234;" d="M176.07,79.02H11.18c1.07-4.52,2.48-8.87,4.24-13.04h156.42C173.59,70.15,175,74.5,176.07,79.02z"
				/>
			<path style="fill:#FFFFFF;" d="M178.05,92.06H9.2c0-0.62,0.06-1.24,0.17-1.81c0-0.73,0.11-1.41,0.23-2.09
				c0-0.28,0.06-0.56,0.11-0.85c0.06-0.68,0.11-1.36,0.23-1.98c0.34-2.15,0.73-4.24,1.24-6.32h164.89
				C177.09,83.25,177.77,87.6,178.05,92.06z"/>
			<path style="fill:#B22234;" d="M178.33,98.56c0,2.2-0.06,4.35-0.28,6.49H9.2c-0.23-2.15-0.28-4.29-0.28-6.49
				c0-2.2,0.06-4.35,0.28-6.49h168.85C178.27,94.21,178.33,96.35,178.33,98.56z"/>
			<path style="fill:#FFFFFF;" d="M178.05,105.05c-0.28,4.46-0.96,8.81-1.98,13.04H11.18c-1.02-4.24-1.69-8.58-1.98-13.04H178.05z"
				/>
			<path style="fill:#B22234;" d="M176.07,118.09c-1.07,4.52-2.48,8.87-4.24,13.04H15.41c-1.75-4.18-3.16-8.53-4.24-13.04H176.07z"
				/>
			<path style="fill:#FFFFFF;" d="M171.84,131.14c-1.92,4.57-4.24,8.92-6.89,13.04H22.3c-2.65-4.12-4.97-8.47-6.89-13.04H171.84z"/>
			<path style="fill:#B22234;" d="M164.95,144.18c-2.99,4.69-6.44,9.04-10.28,12.99H32.58c-3.84-3.95-7.28-8.3-10.28-12.99H164.95z"
				/>
			<path style="fill:#FFFFFF;" d="M154.67,157.17c-4.74,5.03-10.05,9.37-15.92,13.04H48.51c-5.87-3.67-11.18-8.02-15.92-13.04
				H154.67z"/>
			<path style="fill:#B22234;" d="M138.74,170.22c-13.04,8.24-28.52,13.04-45.12,13.04s-32.08-4.8-45.12-13.04H138.74z"/>
			<path style="fill:#3C3B6E;" d="M93.17,13.85v91.2H9.2c-0.23-2.15-0.28-4.29-0.28-6.49c0-2.2,0.06-4.35,0.28-6.49
				c0-0.62,0.06-1.24,0.17-1.81c0-0.73,0.11-1.41,0.23-2.09c0-0.28,0.06-0.56,0.11-0.85c0.06-0.68,0.11-1.36,0.23-1.98
				c0.34-2.15,0.73-4.24,1.24-6.32c1.07-4.52,2.48-8.87,4.24-13.04c0.51-1.19,1.02-2.37,1.58-3.56c0.73-1.53,1.52-3.05,2.32-4.57
				c0.96-1.69,1.92-3.33,2.99-4.91c0.79-1.24,1.58-2.43,2.43-3.61c0.17-0.23,0.28-0.4,0.4-0.56c2.32-3.11,4.74-6.04,7.45-8.81
				c4.74-5.03,10.05-9.37,15.92-13.04c2.77-1.75,5.65-3.39,8.64-4.8c0.56-0.23,1.07-0.51,1.64-0.73c0.45-0.23,0.96-0.45,1.41-0.62
				c0.56-0.28,1.13-0.51,1.69-0.73C71.55,16.11,82.11,13.91,93.17,13.85z"/>
			<polygon style="fill:#FFFFFF;" points="50.4,26.88 51.57,30.48 55.35,30.48 52.29,32.7 53.46,36.29 50.4,34.07 47.34,36.29 
				48.51,32.7 45.45,30.48 49.23,30.48 			"/>
			<polygon style="fill:#FFFFFF;" points="71.86,26.88 73.03,30.48 76.81,30.48 73.75,32.7 74.92,36.29 71.86,34.07 68.8,36.29 
				69.97,32.7 66.91,30.48 70.69,30.48 			"/>
			<path style="fill:#FFFFFF;" d="M31.45,52.93l0.56,1.64l-2.26-1.64l-0.79-0.56l-0.79,0.56l-2.32,1.64l0.56-1.64l0.62-1.92
				l-2.32-1.69c0.17-0.23,0.28-0.4,0.4-0.56h2.65l1.19-3.56l1.13,3.56h3.78l-3.05,2.26L31.45,52.93z"/>
			<polygon style="fill:#FFFFFF;" points="50.4,45.16 51.57,48.76 55.35,48.76 52.29,50.98 53.46,54.58 50.4,52.36 47.34,54.58 
				48.51,50.98 45.45,48.76 49.23,48.76 			"/>
			<polygon style="fill:#FFFFFF;" points="71.86,45.16 73.03,48.76 76.81,48.76 73.75,50.98 74.92,54.58 71.86,52.36 68.8,54.58 
				69.97,50.98 66.91,48.76 70.69,48.76 			"/>
			<polygon style="fill:#FFFFFF;" points="28.94,63.45 30.11,67.04 33.89,67.04 30.83,69.26 32,72.86 28.94,70.64 25.88,72.86 
				27.05,69.26 23.99,67.04 27.77,67.04 			"/>
			<polygon style="fill:#FFFFFF;" points="50.4,63.45 51.57,67.04 55.35,67.04 52.29,69.26 53.46,72.86 50.4,70.64 47.34,72.86 
				48.51,69.26 45.45,67.04 49.23,67.04 			"/>
			<polygon style="fill:#FFFFFF;" points="71.86,63.45 73.03,67.04 76.81,67.04 73.75,69.26 74.92,72.86 71.86,70.64 68.8,72.86 
				69.97,69.26 66.91,67.04 70.69,67.04 			"/>
			<path style="fill:#FFFFFF;" d="M9.6,88.17l0.96,2.99l-1.19-0.9C9.37,89.52,9.48,88.84,9.6,88.17z"/>
			<path style="fill:#FFFFFF;" d="M12.42,85.34l-2.71,1.98c0.06-0.68,0.11-1.36,0.23-1.98H12.42z"/>
			<polygon style="fill:#FFFFFF;" points="28.94,81.73 30.11,85.33 33.89,85.33 30.83,87.55 32,91.14 28.94,88.92 25.88,91.14 
				27.05,87.55 23.99,85.33 27.77,85.33 			"/>
			<polygon style="fill:#FFFFFF;" points="50.4,81.73 51.57,85.33 55.35,85.33 52.29,87.55 53.46,91.14 50.4,88.92 47.34,91.14 
				48.51,87.55 45.45,85.33 49.23,85.33 			"/>
			<polygon style="fill:#FFFFFF;" points="71.86,81.73 73.03,85.33 76.81,85.33 73.75,87.55 74.92,91.14 71.86,88.92 68.8,91.14 
				69.97,87.55 66.91,85.33 70.69,85.33 			"/>
			<path style="fill:#FFFFFF;" d="M64.09,26.89l0.11,0.28l-0.4-0.28l-2.65-1.92l-2.71,1.92l-0.4,0.28l0.11-0.28l1.07-3.28
				l-2.09-1.53c0.56-0.23,1.07-0.51,1.64-0.73h1.19l0.23-0.62c0.56-0.28,1.13-0.51,1.69-0.73l0.4,1.35h3.78l-3.05,2.26L64.09,26.89z
				"/>
			<polygon style="fill:#FFFFFF;" points="82.59,17.78 83.76,21.37 87.54,21.37 84.48,23.59 85.65,27.19 82.59,24.97 79.53,27.19 
				80.7,23.59 77.64,21.37 81.42,21.37 			"/>
			<polygon style="fill:#FFFFFF;" points="39.67,36.07 40.84,39.66 44.62,39.66 41.56,41.88 42.73,45.48 39.67,43.26 36.61,45.48 
				37.78,41.88 34.72,39.66 38.5,39.66 			"/>
			<polygon style="fill:#FFFFFF;" points="61.13,36.07 62.3,39.66 66.08,39.66 63.02,41.88 64.19,45.48 61.13,43.26 58.07,45.48 
				59.24,41.88 56.18,39.66 59.96,39.66 			"/>
			<polygon style="fill:#FFFFFF;" points="82.59,36.07 83.76,39.66 87.54,39.66 84.48,41.88 85.65,45.48 82.59,43.26 79.53,45.48 
				80.7,41.88 77.64,39.66 81.42,39.66 			"/>
			<path style="fill:#FFFFFF;" d="M20.1,60.16l1.19,3.61l-3.05-2.2l-1.24,0.85c0.73-1.53,1.52-3.05,2.32-4.57l0.06,0.11h3.78
				L20.1,60.16z"/>
			<polygon style="fill:#FFFFFF;" points="39.67,54.36 40.84,57.95 44.62,57.95 41.56,60.18 42.73,63.77 39.67,61.55 36.61,63.77 
				37.78,60.18 34.72,57.95 38.5,57.95 			"/>
			<polygon style="fill:#FFFFFF;" points="61.13,54.36 62.3,57.95 66.08,57.95 63.02,60.18 64.19,63.77 61.13,61.55 58.07,63.77 
				59.24,60.18 56.18,57.95 59.96,57.95 			"/>
			<polygon style="fill:#FFFFFF;" points="82.59,54.36 83.76,57.95 87.54,57.95 84.48,60.18 85.65,63.77 82.59,61.55 79.53,63.77 
				80.7,60.18 77.64,57.95 81.42,57.95 			"/>
			<polygon style="fill:#FFFFFF;" points="18.21,72.65 19.38,76.25 23.16,76.25 20.1,78.47 21.27,82.06 18.21,79.84 15.15,82.06 
				16.32,78.47 13.26,76.25 17.04,76.25 			"/>
			<polygon style="fill:#FFFFFF;" points="39.67,72.65 40.84,76.25 44.62,76.25 41.56,78.47 42.73,82.06 39.67,79.84 36.61,82.06 
				37.78,78.47 34.72,76.25 38.5,76.25 			"/>
			<polygon style="fill:#FFFFFF;" points="61.13,72.65 62.3,76.25 66.08,76.25 63.02,78.47 64.19,82.06 61.13,79.84 58.07,82.06 
				59.24,78.47 56.18,76.25 59.96,76.25 			"/>
			<polygon style="fill:#FFFFFF;" points="82.59,72.65 83.76,76.25 87.54,76.25 84.48,78.47 85.65,82.06 82.59,79.84 79.53,82.06 
				80.7,78.47 77.64,76.25 81.42,76.25 			"/>
			<polygon style="fill:#FFFFFF;" points="18.21,90.73 19.38,94.33 23.16,94.33 20.1,96.55 21.27,100.14 18.21,97.92 15.15,100.14 
				16.32,96.55 13.26,94.33 17.04,94.33 			"/>
			<polygon style="fill:#FFFFFF;" points="39.67,90.73 40.84,94.33 44.62,94.33 41.56,96.55 42.73,100.14 39.67,97.92 36.61,100.14 
				37.78,96.55 34.72,94.33 38.5,94.33 			"/>
			<polygon style="fill:#FFFFFF;" points="61.13,90.73 62.3,94.33 66.08,94.33 63.02,96.55 64.19,100.14 61.13,97.92 58.07,100.14 
				59.24,96.55 56.18,94.33 59.96,94.33 			"/>
			<polygon style="fill:#FFFFFF;" points="82.59,90.73 83.76,94.33 87.54,94.33 84.48,96.55 85.65,100.14 82.59,97.92 79.53,100.14 
				80.7,96.55 77.64,94.33 81.42,94.33 			"/>
		</g>
		<g>
			<path style="fill:#FFFFFF;" d="M235.17,25.2v146.71c-12.42,7.23-26.94,11.35-42.35,11.35c-15.42,0-29.93-4.12-42.35-11.35V25.2
				c12.42-7.23,26.94-11.35,42.35-11.35C208.24,13.85,222.75,17.97,235.17,25.2z"/>
			<path style="fill:#FF0000;" d="M210.09,112.99L226,100.11l-3.45-1.59c-0.68-0.31-1.04-1.08-0.83-1.8l2.91-10.28l-9.31,1.94
				c-0.68,0.14-1.36-0.26-1.56-0.93l-1.24-4.17l-7.67,8.6c-0.88,0.98-2.49,0.19-2.25-1.1l3.24-17.58l-4.89,2.48
				c-0.81,0.41-1.81,0.1-2.25-0.7l-5.88-10.79l-5.88,10.79c-0.44,0.8-1.43,1.11-2.25,0.7l-4.89-2.48l3.24,17.58
				c0.24,1.3-1.38,2.09-2.25,1.1l-7.67-8.6l-1.24,4.17c-0.2,0.67-0.88,1.08-1.56,0.93l-9.31-1.94l2.91,10.28
				c0.2,0.72-0.15,1.49-0.83,1.8l-3.45,1.59l15.91,12.88c0.71,0.57,0.99,1.52,0.71,2.39l-1.41,4.36l15.45-2.16
				c0.89-0.12,1.67,0.58,1.65,1.47l-0.45,16.54h1.32h1.32l-0.45-16.54c-0.02-0.9,0.76-1.6,1.65-1.47l15.45,2.16l-1.41-4.36
				C209.1,114.51,209.38,113.56,210.09,112.99z"/>
			<path style="fill:#FF0000;" d="M150.47,25.2v146.71c-25.3-14.68-42.35-42.01-42.35-73.35S125.17,39.88,150.47,25.2z"/>
			<path style="fill:#FF0000;" d="M277.52,98.56c0,31.34-17.05,58.67-42.35,73.35V25.2C260.47,39.88,277.52,67.21,277.52,98.56z"/>
		</g>
	</g>
</g>
<g id="Layer_2">
	<g>
		<path style="fill:#012169;" d="M178.33,98.56c0,5.31-0.51,10.56-1.41,15.59c-0.62,3.11-1.36,6.16-2.26,9.09
			c-0.11,0.51-0.28,1.02-0.51,1.52c-0.45,1.47-0.96,2.94-1.52,4.4c-1.13,2.94-2.43,5.82-3.9,8.58c-2.15,4.07-4.63,7.96-7.4,11.63
			c-10.96,14.63-26.6,25.58-44.67,30.66c-2.94,0.85-5.93,1.52-9.04,2.03c-4.52,0.79-9.2,1.19-14,1.19c-4.8,0-9.49-0.4-14-1.19
			c-3.11-0.51-6.1-1.19-9.04-2.03c-18.07-5.08-33.71-16.04-44.67-30.66c-0.96-1.19-1.81-2.43-2.71-3.73
			c-1.69-2.54-3.28-5.25-4.74-8.02c-2.15-4.12-3.95-8.41-5.36-12.88c-0.23-0.51-0.4-1.02-0.51-1.52c-0.9-2.94-1.64-5.99-2.26-9.09
			c-0.9-5.03-1.41-10.28-1.41-15.59c0-4.24,0.28-8.36,0.9-12.42c0.45-3.11,1.07-6.1,1.86-9.09c0.17-0.68,0.34-1.3,0.56-1.98
			c0.4-1.47,0.85-2.94,1.41-4.4c1.02-2.99,2.2-5.93,3.61-8.75c1.98-4.18,4.29-8.13,6.95-11.86c11.07-15.81,27.33-27.67,46.36-32.98
			c2.94-0.85,5.93-1.52,9.04-2.03c4.52-0.79,9.2-1.19,14-1.19c4.8,0,9.49,0.4,14,1.19c3.11,0.51,6.1,1.19,9.04,2.03
			c19.03,5.31,35.29,17.17,46.36,32.98c0.85,1.24,1.69,2.48,2.54,3.78c1.64,2.65,3.11,5.37,4.46,8.19
			c2.03,4.18,3.67,8.53,4.97,13.04c0.23,0.68,0.4,1.3,0.56,1.98c0.79,2.99,1.41,5.99,1.86,9.09
			C178.05,90.2,178.33,94.32,178.33,98.56z"/>
		<g>
			<path style="fill:#FFFFFF;" d="M178.33,98.56c0,5.31-0.51,10.56-1.41,15.59c-0.62,3.11-1.36,6.16-2.26,9.09H12.59
				c-0.9-2.94-1.64-5.99-2.26-9.09c-0.9-5.03-1.41-10.28-1.41-15.59c0-4.24,0.28-8.36,0.9-12.42c0.45-3.11,1.07-6.1,1.86-9.09
				h163.88c0.79,2.99,1.41,5.99,1.86,9.09C178.05,90.2,178.33,94.32,178.33,98.56z"/>
			<path style="fill:#FFFFFF;" d="M116.66,17.07v162.97c-2.94,0.85-5.93,1.52-9.04,2.03c-4.52,0.79-9.2,1.19-14,1.19
				c-4.8,0-9.49-0.4-14-1.19c-3.11-0.51-6.1-1.19-9.04-2.03V17.07c2.94-0.85,5.93-1.52,9.04-2.03c4.52-0.79,9.2-1.19,14-1.19
				c4.8,0,9.49,0.4,14,1.19C110.74,15.54,113.73,16.22,116.66,17.07z"/>
			<path style="fill:#CF142B;" d="M178.33,98.56c0,5.31-0.51,10.56-1.41,15.59h-69.29v67.93c-4.52,0.79-9.2,1.19-14,1.19
				c-4.8,0-9.49-0.4-14-1.19v-67.93H10.33c-0.9-5.03-1.41-10.28-1.41-15.59c0-4.24,0.28-8.36,0.9-12.42h69.8v-71.1
				c4.52-0.79,9.2-1.19,14-1.19c4.8,0,9.49,0.4,14,1.19v71.1h69.8C178.05,90.2,178.33,94.32,178.33,98.56z"/>
			<path style="fill:#FFFFFF;" d="M175,75.06l-3.9,1.98h-54.44v-3.73l46.36-23.27c0.85,1.24,1.69,2.48,2.54,3.78
				c1.64,2.65,3.11,5.37,4.46,8.19C172.06,66.2,173.7,70.55,175,75.06z"/>
			<path style="fill:#CF142B;" d="M170.03,62.02l-29.99,15.02h-20.95l46.47-23.21C167.21,56.49,168.67,59.2,170.03,62.02z"/>
			<path style="fill:#FFFFFF;" d="M174.15,124.76c-0.45,1.47-0.96,2.94-1.52,4.4c-1.13,2.94-2.43,5.82-3.9,8.58
				c-2.15,4.07-4.63,7.96-7.4,11.63l-44.67-22.42v-3.73h54.44L174.15,124.76z"/>
			<path style="fill:#FFFFFF;" d="M70.59,123.23v3.73l-44.67,22.42c-0.96-1.19-1.81-2.43-2.71-3.73c-1.69-2.54-3.28-5.25-4.74-8.02
				c-2.15-4.12-3.95-8.41-5.36-12.88l3.05-1.52H70.59z"/>
			<path style="fill:#CF142B;" d="M68.16,123.23l-44.95,22.42c-1.69-2.54-3.28-5.25-4.74-8.02l28.74-14.4H68.16z"/>
			<path style="fill:#FFFFFF;" d="M70.59,73.31v3.73H16.15l-3.9-1.98c0.4-1.47,0.85-2.94,1.41-4.4c1.02-2.99,2.2-5.93,3.61-8.75
				c1.98-4.18,4.29-8.13,6.95-11.86L70.59,73.31z"/>
			<path style="fill:#CF142B;" d="M47.55,77.04H26.48l-12.82-6.38c1.02-2.99,2.2-5.93,3.61-8.75L47.55,77.04z"/>
			<path style="fill:#CF142B;" d="M172.63,129.16c-1.13,2.94-2.43,5.82-3.9,8.58l-29.03-14.51h21.06L172.63,129.16z"/>
		</g>
	</g>
	<g>
		<path style="fill:#B22234;" d="M237.94,26.89H147.7c2.77-1.75,5.65-3.39,8.64-4.8c0.56-0.23,1.07-0.51,1.64-0.73
			c0.45-0.23,0.96-0.45,1.41-0.62c0.56-0.28,1.13-0.51,1.69-0.73c9.66-3.9,20.22-6.1,31.28-6.16h0.45
			C209.42,13.85,224.89,18.65,237.94,26.89z"/>
		<path style="fill:#FFFFFF;" d="M253.86,39.94H131.78c4.74-5.03,10.05-9.37,15.92-13.04h90.24
			C243.81,30.57,249.12,34.91,253.86,39.94z"/>
		<path style="fill:#B22234;" d="M264.14,52.93H121.5c0.79-1.24,1.58-2.43,2.43-3.61c0.17-0.23,0.28-0.4,0.4-0.56
			c2.32-3.11,4.74-6.04,7.45-8.81h122.09C257.7,43.89,261.15,48.24,264.14,52.93z"/>
		<path style="fill:#FFFFFF;" d="M271.03,65.97H114.61c0.51-1.19,1.02-2.37,1.58-3.56c0.73-1.53,1.52-3.05,2.32-4.57
			c0.96-1.69,1.92-3.33,2.99-4.91h142.64C266.8,57.05,269.11,61.4,271.03,65.97z"/>
		<path style="fill:#B22234;" d="M275.27,79.02H110.37c1.07-4.52,2.48-8.87,4.24-13.04h156.42
			C272.78,70.15,274.19,74.5,275.27,79.02z"/>
		<path style="fill:#FFFFFF;" d="M277.24,92.06H108.4c0-0.62,0.06-1.24,0.17-1.81c0-0.73,0.11-1.41,0.23-2.09
			c0-0.28,0.06-0.56,0.11-0.85c0.06-0.68,0.11-1.36,0.23-1.98c0.34-2.15,0.73-4.24,1.24-6.32h164.89
			C276.28,83.25,276.96,87.6,277.24,92.06z"/>
		<path style="fill:#B22234;" d="M277.52,98.56c0,2.2-0.06,4.35-0.28,6.49H108.4c-0.23-2.15-0.28-4.29-0.28-6.49
			c0-2.2,0.06-4.35,0.28-6.49h168.85C277.47,94.21,277.52,96.35,277.52,98.56z"/>
		<path style="fill:#FFFFFF;" d="M277.24,105.05c-0.28,4.46-0.96,8.81-1.98,13.04H110.37c-1.02-4.24-1.69-8.58-1.98-13.04H277.24z"
			/>
		<path style="fill:#B22234;" d="M275.27,118.09c-1.07,4.52-2.48,8.87-4.24,13.04H114.61c-1.75-4.18-3.16-8.53-4.24-13.04H275.27z"
			/>
		<path style="fill:#FFFFFF;" d="M271.03,131.14c-1.92,4.57-4.24,8.92-6.89,13.04H121.5c-2.65-4.12-4.97-8.47-6.89-13.04H271.03z"/>
		<path style="fill:#B22234;" d="M264.14,144.18c-2.99,4.69-6.44,9.04-10.28,12.99H131.78c-3.84-3.95-7.28-8.3-10.28-12.99H264.14z"
			/>
		<path style="fill:#FFFFFF;" d="M253.86,157.17c-4.74,5.03-10.05,9.37-15.92,13.04H147.7c-5.87-3.67-11.18-8.02-15.92-13.04H253.86
			z"/>
		<path style="fill:#B22234;" d="M237.94,170.22c-13.04,8.24-28.52,13.04-45.12,13.04s-32.08-4.8-45.12-13.04H237.94z"/>
		<path style="fill:#3C3B6E;" d="M192.37,13.85v91.2H108.4c-0.23-2.15-0.28-4.29-0.28-6.49c0-2.2,0.06-4.35,0.28-6.49
			c0-0.62,0.06-1.24,0.17-1.81c0-0.73,0.11-1.41,0.23-2.09c0-0.28,0.06-0.56,0.11-0.85c0.06-0.68,0.11-1.36,0.23-1.98
			c0.34-2.15,0.73-4.24,1.24-6.32c1.07-4.52,2.48-8.87,4.24-13.04c0.51-1.19,1.02-2.37,1.58-3.56c0.73-1.53,1.52-3.05,2.32-4.57
			c0.96-1.69,1.92-3.33,2.99-4.91c0.79-1.24,1.58-2.43,2.43-3.61c0.17-0.23,0.28-0.4,0.4-0.56c2.32-3.11,4.74-6.04,7.45-8.81
			c4.74-5.03,10.05-9.37,15.92-13.04c2.77-1.75,5.65-3.39,8.64-4.8c0.56-0.23,1.07-0.51,1.64-0.73c0.45-0.23,0.96-0.45,1.41-0.62
			c0.56-0.28,1.13-0.51,1.69-0.73C170.74,16.11,181.3,13.91,192.37,13.85z"/>
		<polygon style="fill:#FFFFFF;" points="149.59,26.88 150.76,30.48 154.54,30.48 151.48,32.7 152.65,36.29 149.59,34.07 
			146.54,36.29 147.7,32.7 144.65,30.48 148.43,30.48 		"/>
		<polygon style="fill:#FFFFFF;" points="171.05,26.88 172.22,30.48 176,30.48 172.94,32.7 174.11,36.29 171.05,34.07 168,36.29 
			169.16,32.7 166.11,30.48 169.89,30.48 		"/>
		<path style="fill:#FFFFFF;" d="M130.65,52.93l0.56,1.64l-2.26-1.64l-0.79-0.56l-0.79,0.56l-2.32,1.64l0.56-1.64l0.62-1.92
			l-2.32-1.69c0.17-0.23,0.28-0.4,0.4-0.56h2.65l1.19-3.56l1.13,3.56h3.78l-3.05,2.26L130.65,52.93z"/>
		<polygon style="fill:#FFFFFF;" points="149.59,45.16 150.76,48.76 154.54,48.76 151.48,50.98 152.65,54.58 149.59,52.36 
			146.54,54.58 147.7,50.98 144.65,48.76 148.43,48.76 		"/>
		<polygon style="fill:#FFFFFF;" points="171.05,45.16 172.22,48.76 176,48.76 172.94,50.98 174.11,54.58 171.05,52.36 168,54.58 
			169.16,50.98 166.11,48.76 169.89,48.76 		"/>
		<polygon style="fill:#FFFFFF;" points="128.14,63.45 129.3,67.04 133.08,67.04 130.03,69.26 131.19,72.86 128.14,70.64 
			125.08,72.86 126.25,69.26 123.19,67.04 126.97,67.04 		"/>
		<polygon style="fill:#FFFFFF;" points="149.59,63.45 150.76,67.04 154.54,67.04 151.48,69.26 152.65,72.86 149.59,70.64 
			146.54,72.86 147.7,69.26 144.65,67.04 148.43,67.04 		"/>
		<polygon style="fill:#FFFFFF;" points="171.05,63.45 172.22,67.04 176,67.04 172.94,69.26 174.11,72.86 171.05,70.64 168,72.86 
			169.16,69.26 166.11,67.04 169.89,67.04 		"/>
		<path style="fill:#FFFFFF;" d="M108.79,88.17l0.96,2.99l-1.19-0.9C108.57,89.52,108.68,88.84,108.79,88.17z"/>
		<path style="fill:#FFFFFF;" d="M111.62,85.34l-2.71,1.98c0.06-0.68,0.11-1.36,0.23-1.98H111.62z"/>
		<polygon style="fill:#FFFFFF;" points="128.14,81.73 129.3,85.33 133.08,85.33 130.03,87.55 131.19,91.14 128.14,88.92 
			125.08,91.14 126.25,87.55 123.19,85.33 126.97,85.33 		"/>
		<polygon style="fill:#FFFFFF;" points="149.59,81.73 150.76,85.33 154.54,85.33 151.48,87.55 152.65,91.14 149.59,88.92 
			146.54,91.14 147.7,87.55 144.65,85.33 148.43,85.33 		"/>
		<polygon style="fill:#FFFFFF;" points="171.05,81.73 172.22,85.33 176,85.33 172.94,87.55 174.11,91.14 171.05,88.92 168,91.14 
			169.16,87.55 166.11,85.33 169.89,85.33 		"/>
		<path style="fill:#FFFFFF;" d="M163.29,26.89l0.11,0.28l-0.4-0.28l-2.65-1.92l-2.71,1.92l-0.4,0.28l0.11-0.28l1.07-3.28
			l-2.09-1.53c0.56-0.23,1.07-0.51,1.64-0.73h1.19l0.23-0.62c0.56-0.28,1.13-0.51,1.69-0.73l0.4,1.35h3.78l-3.05,2.26L163.29,26.89z
			"/>
		<polygon style="fill:#FFFFFF;" points="181.78,17.78 182.95,21.37 186.73,21.37 183.67,23.59 184.84,27.19 181.78,24.97 
			178.73,27.19 179.89,23.59 176.84,21.37 180.62,21.37 		"/>
		<polygon style="fill:#FFFFFF;" points="138.86,36.07 140.03,39.66 143.81,39.66 140.76,41.88 141.92,45.48 138.86,43.26 
			135.81,45.48 136.97,41.88 133.92,39.66 137.7,39.66 		"/>
		<polygon style="fill:#FFFFFF;" points="160.32,36.07 161.49,39.66 165.27,39.66 162.21,41.88 163.38,45.48 160.32,43.26 
			157.27,45.48 158.43,41.88 155.38,39.66 159.16,39.66 		"/>
		<polygon style="fill:#FFFFFF;" points="181.78,36.07 182.95,39.66 186.73,39.66 183.67,41.88 184.84,45.48 181.78,43.26 
			178.73,45.48 179.89,41.88 176.84,39.66 180.62,39.66 		"/>
		<path style="fill:#FFFFFF;" d="M119.3,60.16l1.19,3.61l-3.05-2.2l-1.24,0.85c0.73-1.53,1.52-3.05,2.32-4.57l0.06,0.11h3.78
			L119.3,60.16z"/>
		<polygon style="fill:#FFFFFF;" points="138.86,54.36 140.03,57.95 143.81,57.95 140.76,60.18 141.92,63.77 138.86,61.55 
			135.81,63.77 136.97,60.18 133.92,57.95 137.7,57.95 		"/>
		<polygon style="fill:#FFFFFF;" points="160.32,54.36 161.49,57.95 165.27,57.95 162.21,60.18 163.38,63.77 160.32,61.55 
			157.27,63.77 158.43,60.18 155.38,57.95 159.16,57.95 		"/>
		<polygon style="fill:#FFFFFF;" points="181.78,54.36 182.95,57.95 186.73,57.95 183.67,60.18 184.84,63.77 181.78,61.55 
			178.73,63.77 179.89,60.18 176.84,57.95 180.62,57.95 		"/>
		<polygon style="fill:#FFFFFF;" points="117.41,72.65 118.57,76.25 122.35,76.25 119.3,78.47 120.46,82.06 117.41,79.84 
			114.35,82.06 115.52,78.47 112.46,76.25 116.24,76.25 		"/>
		<polygon style="fill:#FFFFFF;" points="138.86,72.65 140.03,76.25 143.81,76.25 140.76,78.47 141.92,82.06 138.86,79.84 
			135.81,82.06 136.97,78.47 133.92,76.25 137.7,76.25 		"/>
		<polygon style="fill:#FFFFFF;" points="160.32,72.65 161.49,76.25 165.27,76.25 162.21,78.47 163.38,82.06 160.32,79.84 
			157.27,82.06 158.43,78.47 155.38,76.25 159.16,76.25 		"/>
		<polygon style="fill:#FFFFFF;" points="181.78,72.65 182.95,76.25 186.73,76.25 183.67,78.47 184.84,82.06 181.78,79.84 
			178.73,82.06 179.89,78.47 176.84,76.25 180.62,76.25 		"/>
		<polygon style="fill:#FFFFFF;" points="117.41,90.73 118.57,94.33 122.35,94.33 119.3,96.55 120.46,100.14 117.41,97.92 
			114.35,100.14 115.52,96.55 112.46,94.33 116.24,94.33 		"/>
		<polygon style="fill:#FFFFFF;" points="138.86,90.73 140.03,94.33 143.81,94.33 140.76,96.55 141.92,100.14 138.86,97.92 
			135.81,100.14 136.97,96.55 133.92,94.33 137.7,94.33 		"/>
		<polygon style="fill:#FFFFFF;" points="160.32,90.73 161.49,94.33 165.27,94.33 162.21,96.55 163.38,100.14 160.32,97.92 
			157.27,100.14 158.43,96.55 155.38,94.33 159.16,94.33 		"/>
		<polygon style="fill:#FFFFFF;" points="181.78,90.73 182.95,94.33 186.73,94.33 183.67,96.55 184.84,100.14 181.78,97.92 
			178.73,100.14 179.89,96.55 176.84,94.33 180.62,94.33 		"/>
	</g>
</g>
<g id="Layer_3">
	<path style="fill:#283890;" d="M178.33,98.56c0,9.87-1.72,19.37-4.85,28.24c-11.59,32.88-43,56.47-79.85,56.47
		c-36.89,0-68.31-23.59-79.85-56.47c-3.18-8.87-4.85-18.36-4.85-28.24c0-9.87,1.67-19.37,4.85-28.24
		c11.55-32.88,42.96-56.47,79.85-56.47c36.85,0,68.27,23.59,79.85,56.47C176.62,79.19,178.33,88.68,178.33,98.56z"/>
	<g>
		<polygon style="fill:#F6CC29;" points="93.62,41.99 91.88,47.37 86.22,47.37 90.8,50.7 89.05,56.08 93.62,52.76 98.2,56.08 
			96.45,50.7 101.03,47.37 95.37,47.37 		"/>
		<polygon style="fill:#F6CC29;" points="69.6,48.74 67.85,54.13 62.19,54.13 66.77,57.45 65.02,62.83 69.6,59.51 74.18,62.83 
			72.43,57.45 77.01,54.13 71.35,54.13 		"/>
		<polygon style="fill:#F6CC29;" points="51.59,65.59 49.84,70.97 44.18,70.97 48.76,74.3 47.01,79.68 51.59,76.35 56.17,79.68 
			54.42,74.3 59,70.97 53.34,70.97 		"/>
		<polygon style="fill:#F6CC29;" points="44.11,91.51 42.36,96.89 36.7,96.89 41.28,100.22 39.53,105.6 44.11,102.27 48.69,105.6 
			46.94,100.22 51.52,96.89 45.86,96.89 		"/>
		<polygon style="fill:#F6CC29;" points="52.76,114.8 51.01,120.19 45.35,120.19 49.93,123.51 48.18,128.9 52.76,125.57 
			57.34,128.9 55.59,123.51 60.17,120.19 54.51,120.19 		"/>
		<polygon style="fill:#F6CC29;" points="68.43,131.65 66.68,137.03 61.02,137.03 65.6,140.36 63.85,145.74 68.43,142.41 
			73.01,145.74 71.26,140.36 75.84,137.03 70.18,137.03 		"/>
		<polygon style="fill:#F6CC29;" points="93.63,141.03 91.88,146.41 86.22,146.41 90.8,149.74 89.05,155.12 93.63,151.79 
			98.2,155.12 96.45,149.74 101.03,146.41 95.37,146.41 		"/>
		<polygon style="fill:#F6CC29;" points="118.82,131.65 117.07,137.03 111.41,137.03 115.99,140.36 114.24,145.74 118.82,142.41 
			123.4,145.74 121.65,140.36 126.23,137.03 120.57,137.03 		"/>
		<polygon style="fill:#F6CC29;" points="134.49,114.8 132.74,120.19 127.08,120.19 131.66,123.51 129.91,128.9 134.49,125.57 
			139.07,128.9 137.32,123.51 141.9,120.19 136.24,120.19 		"/>
		<polygon style="fill:#F6CC29;" points="143.14,91.51 141.39,96.89 135.73,96.89 140.31,100.22 138.56,105.6 143.14,102.27 
			147.72,105.6 145.97,100.22 150.55,96.89 144.89,96.89 		"/>
		<polygon style="fill:#F6CC29;" points="135.66,65.59 133.91,70.97 128.25,70.97 132.83,74.3 131.08,79.68 135.66,76.35 
			140.24,79.68 138.49,74.3 143.07,70.97 137.41,70.97 		"/>
		<polygon style="fill:#F6CC29;" points="117.65,48.74 115.9,54.13 110.24,54.13 114.82,57.45 113.07,62.83 117.65,59.51 
			122.23,62.83 120.48,57.45 125.06,54.13 119.4,54.13 		"/>
	</g>
	<g>
		<path style="fill:#B22234;" d="M237.94,26.89H147.7c2.77-1.75,5.65-3.39,8.64-4.8c0.56-0.23,1.07-0.51,1.64-0.73
			c0.45-0.23,0.96-0.45,1.41-0.62c0.56-0.28,1.13-0.51,1.69-0.73c9.66-3.9,20.22-6.1,31.28-6.16h0.45
			C209.42,13.85,224.89,18.65,237.94,26.89z"/>
		<path style="fill:#FFFFFF;" d="M253.86,39.94H131.78c4.74-5.03,10.05-9.37,15.92-13.04h90.24
			C243.81,30.57,249.12,34.91,253.86,39.94z"/>
		<path style="fill:#B22234;" d="M264.14,52.93H121.5c0.79-1.24,1.58-2.43,2.43-3.61c0.17-0.23,0.28-0.4,0.4-0.56
			c2.32-3.11,4.74-6.04,7.45-8.81h122.09C257.7,43.89,261.15,48.24,264.14,52.93z"/>
		<path style="fill:#FFFFFF;" d="M271.03,65.97H114.61c0.51-1.19,1.02-2.37,1.58-3.56c0.73-1.53,1.52-3.05,2.32-4.57
			c0.96-1.69,1.92-3.33,2.99-4.91h142.64C266.8,57.05,269.11,61.4,271.03,65.97z"/>
		<path style="fill:#B22234;" d="M275.27,79.02H110.37c1.07-4.52,2.48-8.87,4.24-13.04h156.42
			C272.78,70.15,274.19,74.5,275.27,79.02z"/>
		<path style="fill:#FFFFFF;" d="M277.24,92.06H108.4c0-0.62,0.06-1.24,0.17-1.81c0-0.73,0.11-1.41,0.23-2.09
			c0-0.28,0.06-0.56,0.11-0.85c0.06-0.68,0.11-1.36,0.23-1.98c0.34-2.15,0.73-4.24,1.24-6.32h164.89
			C276.28,83.25,276.96,87.6,277.24,92.06z"/>
		<path style="fill:#B22234;" d="M277.52,98.56c0,2.2-0.06,4.35-0.28,6.49H108.4c-0.23-2.15-0.28-4.29-0.28-6.49
			c0-2.2,0.06-4.35,0.28-6.49h168.85C277.47,94.21,277.52,96.35,277.52,98.56z"/>
		<path style="fill:#FFFFFF;" d="M277.24,105.05c-0.28,4.46-0.96,8.81-1.98,13.04H110.37c-1.02-4.24-1.69-8.58-1.98-13.04H277.24z"
			/>
		<path style="fill:#B22234;" d="M275.27,118.09c-1.07,4.52-2.48,8.87-4.24,13.04H114.61c-1.75-4.18-3.16-8.53-4.24-13.04H275.27z"
			/>
		<path style="fill:#FFFFFF;" d="M271.03,131.14c-1.92,4.57-4.24,8.92-6.89,13.04H121.5c-2.65-4.12-4.97-8.47-6.89-13.04H271.03z"/>
		<path style="fill:#B22234;" d="M264.14,144.18c-2.99,4.69-6.44,9.04-10.28,12.99H131.78c-3.84-3.95-7.28-8.3-10.28-12.99H264.14z"
			/>
		<path style="fill:#FFFFFF;" d="M253.86,157.17c-4.74,5.03-10.05,9.37-15.92,13.04H147.7c-5.87-3.67-11.18-8.02-15.92-13.04H253.86
			z"/>
		<path style="fill:#B22234;" d="M237.94,170.22c-13.04,8.24-28.52,13.04-45.12,13.04s-32.08-4.8-45.12-13.04H237.94z"/>
		<path style="fill:#3C3B6E;" d="M192.37,13.85v91.2H108.4c-0.23-2.15-0.28-4.29-0.28-6.49c0-2.2,0.06-4.35,0.28-6.49
			c0-0.62,0.06-1.24,0.17-1.81c0-0.73,0.11-1.41,0.23-2.09c0-0.28,0.06-0.56,0.11-0.85c0.06-0.68,0.11-1.36,0.23-1.98
			c0.34-2.15,0.73-4.24,1.24-6.32c1.07-4.52,2.48-8.87,4.24-13.04c0.51-1.19,1.02-2.37,1.58-3.56c0.73-1.53,1.52-3.05,2.32-4.57
			c0.96-1.69,1.92-3.33,2.99-4.91c0.79-1.24,1.58-2.43,2.43-3.61c0.17-0.23,0.28-0.4,0.4-0.56c2.32-3.11,4.74-6.04,7.45-8.81
			c4.74-5.03,10.05-9.37,15.92-13.04c2.77-1.75,5.65-3.39,8.64-4.8c0.56-0.23,1.07-0.51,1.64-0.73c0.45-0.23,0.96-0.45,1.41-0.62
			c0.56-0.28,1.13-0.51,1.69-0.73C170.74,16.11,181.3,13.91,192.37,13.85z"/>
		<polygon style="fill:#FFFFFF;" points="149.59,26.88 150.76,30.48 154.54,30.48 151.48,32.7 152.65,36.29 149.59,34.07 
			146.54,36.29 147.7,32.7 144.65,30.48 148.43,30.48 		"/>
		<polygon style="fill:#FFFFFF;" points="171.05,26.88 172.22,30.48 176,30.48 172.94,32.7 174.11,36.29 171.05,34.07 168,36.29 
			169.16,32.7 166.11,30.48 169.89,30.48 		"/>
		<path style="fill:#FFFFFF;" d="M130.65,52.93l0.56,1.64l-2.26-1.64l-0.79-0.56l-0.79,0.56l-2.32,1.64l0.56-1.64l0.62-1.92
			l-2.32-1.69c0.17-0.23,0.28-0.4,0.4-0.56h2.65l1.19-3.56l1.13,3.56h3.78l-3.05,2.26L130.65,52.93z"/>
		<polygon style="fill:#FFFFFF;" points="149.59,45.16 150.76,48.76 154.54,48.76 151.48,50.98 152.65,54.58 149.59,52.36 
			146.54,54.58 147.7,50.98 144.65,48.76 148.43,48.76 		"/>
		<polygon style="fill:#FFFFFF;" points="171.05,45.16 172.22,48.76 176,48.76 172.94,50.98 174.11,54.58 171.05,52.36 168,54.58 
			169.16,50.98 166.11,48.76 169.89,48.76 		"/>
		<polygon style="fill:#FFFFFF;" points="128.14,63.45 129.3,67.04 133.08,67.04 130.03,69.26 131.19,72.86 128.14,70.64 
			125.08,72.86 126.25,69.26 123.19,67.04 126.97,67.04 		"/>
		<polygon style="fill:#FFFFFF;" points="149.59,63.45 150.76,67.04 154.54,67.04 151.48,69.26 152.65,72.86 149.59,70.64 
			146.54,72.86 147.7,69.26 144.65,67.04 148.43,67.04 		"/>
		<polygon style="fill:#FFFFFF;" points="171.05,63.45 172.22,67.04 176,67.04 172.94,69.26 174.11,72.86 171.05,70.64 168,72.86 
			169.16,69.26 166.11,67.04 169.89,67.04 		"/>
		<path style="fill:#FFFFFF;" d="M108.79,88.17l0.96,2.99l-1.19-0.9C108.57,89.52,108.68,88.84,108.79,88.17z"/>
		<path style="fill:#FFFFFF;" d="M111.62,85.34l-2.71,1.98c0.06-0.68,0.11-1.36,0.23-1.98H111.62z"/>
		<polygon style="fill:#FFFFFF;" points="128.14,81.73 129.3,85.33 133.08,85.33 130.03,87.55 131.19,91.14 128.14,88.92 
			125.08,91.14 126.25,87.55 123.19,85.33 126.97,85.33 		"/>
		<polygon style="fill:#FFFFFF;" points="149.59,81.73 150.76,85.33 154.54,85.33 151.48,87.55 152.65,91.14 149.59,88.92 
			146.54,91.14 147.7,87.55 144.65,85.33 148.43,85.33 		"/>
		<polygon style="fill:#FFFFFF;" points="171.05,81.73 172.22,85.33 176,85.33 172.94,87.55 174.11,91.14 171.05,88.92 168,91.14 
			169.16,87.55 166.11,85.33 169.89,85.33 		"/>
		<path style="fill:#FFFFFF;" d="M163.29,26.89l0.11,0.28l-0.4-0.28l-2.65-1.92l-2.71,1.92l-0.4,0.28l0.11-0.28l1.07-3.28
			l-2.09-1.53c0.56-0.23,1.07-0.51,1.64-0.73h1.19l0.23-0.62c0.56-0.28,1.13-0.51,1.69-0.73l0.4,1.35h3.78l-3.05,2.26L163.29,26.89z
			"/>
		<polygon style="fill:#FFFFFF;" points="181.78,17.78 182.95,21.37 186.73,21.37 183.67,23.59 184.84,27.19 181.78,24.97 
			178.73,27.19 179.89,23.59 176.84,21.37 180.62,21.37 		"/>
		<polygon style="fill:#FFFFFF;" points="138.86,36.07 140.03,39.66 143.81,39.66 140.76,41.88 141.92,45.48 138.86,43.26 
			135.81,45.48 136.97,41.88 133.92,39.66 137.7,39.66 		"/>
		<polygon style="fill:#FFFFFF;" points="160.32,36.07 161.49,39.66 165.27,39.66 162.21,41.88 163.38,45.48 160.32,43.26 
			157.27,45.48 158.43,41.88 155.38,39.66 159.16,39.66 		"/>
		<polygon style="fill:#FFFFFF;" points="181.78,36.07 182.95,39.66 186.73,39.66 183.67,41.88 184.84,45.48 181.78,43.26 
			178.73,45.48 179.89,41.88 176.84,39.66 180.62,39.66 		"/>
		<path style="fill:#FFFFFF;" d="M119.3,60.16l1.19,3.61l-3.05-2.2l-1.24,0.85c0.73-1.53,1.52-3.05,2.32-4.57l0.06,0.11h3.78
			L119.3,60.16z"/>
		<polygon style="fill:#FFFFFF;" points="138.86,54.36 140.03,57.95 143.81,57.95 140.76,60.18 141.92,63.77 138.86,61.55 
			135.81,63.77 136.97,60.18 133.92,57.95 137.7,57.95 		"/>
		<polygon style="fill:#FFFFFF;" points="160.32,54.36 161.49,57.95 165.27,57.95 162.21,60.18 163.38,63.77 160.32,61.55 
			157.27,63.77 158.43,60.18 155.38,57.95 159.16,57.95 		"/>
		<polygon style="fill:#FFFFFF;" points="181.78,54.36 182.95,57.95 186.73,57.95 183.67,60.18 184.84,63.77 181.78,61.55 
			178.73,63.77 179.89,60.18 176.84,57.95 180.62,57.95 		"/>
		<polygon style="fill:#FFFFFF;" points="117.41,72.65 118.57,76.25 122.35,76.25 119.3,78.47 120.46,82.06 117.41,79.84 
			114.35,82.06 115.52,78.47 112.46,76.25 116.24,76.25 		"/>
		<polygon style="fill:#FFFFFF;" points="138.86,72.65 140.03,76.25 143.81,76.25 140.76,78.47 141.92,82.06 138.86,79.84 
			135.81,82.06 136.97,78.47 133.92,76.25 137.7,76.25 		"/>
		<polygon style="fill:#FFFFFF;" points="160.32,72.65 161.49,76.25 165.27,76.25 162.21,78.47 163.38,82.06 160.32,79.84 
			157.27,82.06 158.43,78.47 155.38,76.25 159.16,76.25 		"/>
		<polygon style="fill:#FFFFFF;" points="181.78,72.65 182.95,76.25 186.73,76.25 183.67,78.47 184.84,82.06 181.78,79.84 
			178.73,82.06 179.89,78.47 176.84,76.25 180.62,76.25 		"/>
		<polygon style="fill:#FFFFFF;" points="117.41,90.73 118.57,94.33 122.35,94.33 119.3,96.55 120.46,100.14 117.41,97.92 
			114.35,100.14 115.52,96.55 112.46,94.33 116.24,94.33 		"/>
		<polygon style="fill:#FFFFFF;" points="138.86,90.73 140.03,94.33 143.81,94.33 140.76,96.55 141.92,100.14 138.86,97.92 
			135.81,100.14 136.97,96.55 133.92,94.33 137.7,94.33 		"/>
		<polygon style="fill:#FFFFFF;" points="160.32,90.73 161.49,94.33 165.27,94.33 162.21,96.55 163.38,100.14 160.32,97.92 
			157.27,100.14 158.43,96.55 155.38,94.33 159.16,94.33 		"/>
		<polygon style="fill:#FFFFFF;" points="181.78,90.73 182.95,94.33 186.73,94.33 183.67,96.55 184.84,100.14 181.78,97.92 
			178.73,100.14 179.89,96.55 176.84,94.33 180.62,94.33 		"/>
	</g>
</g>
</svg>
