<?xml version="1.0" standalone="no"?><!DOCTYPE svg PUBLIC "-//W3C//DTD SVG 1.1//EN" "http://www.w3.org/Graphics/SVG/1.1/DTD/svg11.dtd"><svg t="1614929112981" class="icon" viewBox="0 0 1024 1024" version="1.1" xmlns="http://www.w3.org/2000/svg" p-id="5399" width="40" height="40" xmlns:xlink="http://www.w3.org/1999/xlink"><defs><style type="text/css"></style></defs><path d="M907.3 836c-0.7-5.6-2.8-10.9-6.2-15.4-8.3-11.4-16-23.3-23.2-35.3-14.1-23.5-28-48.9-31.5-76.5 15.5-29.5 24.8-61.8 27.5-95 2.7-33.2-1.4-66.6-12-98.2-10.6-31.6-27.5-60.7-49.6-85.6-22.1-24.9-49.1-45.1-79.2-59.3-10.5-39.8-29.3-77-55-109.2s-57.9-58.7-94.4-77.8c-36.5-19.1-76.7-30.4-117.8-33.1-41.1-2.7-82.4 3.1-121.1 17.2-38.7 14.1-74.1 36.1-103.9 64.6-29.8 28.5-53.3 62.9-69 101-15.7 38.1-23.4 79-22.4 120.2s10.5 81.7 28 119c6.3 56.8-22.3 104.6-54.7 149.1v0.1c-10.9 14.2-16.1 61.3 58.5 52.9 30.6-3 60.8-10 89.6-20.8 22.5-8.6 44.1-19.6 64.3-32.8 30 12 61.7 19.1 93.9 20.9 23 30.9 52.9 55.9 87.3 73.1 34.4 17.2 72.4 26.2 110.9 26.2 26 0 51.8-4 76.5-12.1 14.5 8.4 31 16.6 49.2 23.5 36.9 14 67.6 19.2 89.6 20.8 16.5 1.2 28.1 0.4 33.9-0.3 12.6-1.5 23.9-8.6 28.8-20.7 2-5.3 2.8-10.9 2-16.5zM345.9 653.8c-5.4-2.6-11.3-3.6-17.2-3.1-5.9 0.5-11.6 2.7-16.4 6.1-30 21.8-63.9 37.5-99.9 46.3 24.9-45.4 37.1-92.8 29.8-144.7-0.5-3.5-1.5-6.9-3.1-10.1-15.4-31.1-23.7-65.4-24-100.1-0.3-34.8 7.2-69.1 22-100.6 14.8-31.4 36.6-59.1 63.6-81s58.7-37.4 92.5-45.3c33.9-7.9 69.1-8.1 103-0.5 34 7.6 65.7 22.7 93 44.3 27.3 21.6 49.3 49 64.5 80.3 15.2 31.3 23 65.6 23.1 100.4 0 39-9.9 77.4-28.8 111.6-18.9 34.2-46.1 63-79.2 83.8-33 20.7-70.8 32.8-109.8 35-39 2.2-77.9-5.5-113.1-22.4z m430.5 137.3c-19.4-7.3-36.6-16.6-51.1-26-4.4-2.9-9.5-4.6-14.8-5.1-5.3-0.5-10.6 0.3-15.4 2.3-20.9 8.4-43.8 13.1-67.8 13.1-41.7 0.1-82-14.3-114.3-40.5 63.9-14.8 121.1-50.4 162.7-101.2 41.5-50.8 65.1-113.9 66.9-179.4 40.4 33.3 66.1 83.6 66.1 139.9 0.1 32-8.4 63.4-24.5 91-3.3 5.6-4.8 12.1-4.4 18.6 0.6 10.1 2 20.9 4.6 32 5.1 22.4 16.2 46.2 27.2 66.2-12-2.9-23.7-6.6-35.2-10.9z" p-id="5400" fill="#595757"></path></svg>