<?xml version="1.0" standalone="no"?><!DOCTYPE svg PUBLIC "-//W3C//DTD SVG 1.1//EN" "http://www.w3.org/Graphics/SVG/1.1/DTD/svg11.dtd"><svg t="1614335115591" class="icon" viewBox="0 0 1024 1024" version="1.1" xmlns="http://www.w3.org/2000/svg" p-id="5150" width="24" height="24" xmlns:xlink="http://www.w3.org/1999/xlink"><defs><style type="text/css"></style></defs><path d="M538.436267 143.837867A24.2688 24.2688 0 0 0 520.840533 136.533333c-6.673067 0-13.346133 2.440533-17.595733 7.304534L319.3856 327.458133c-9.710933 9.728-9.710933 25.531733 0 35.874134 9.728 9.728 25.480533 9.728 35.805867 0l165.649066-165.9904 165.649067 165.9904c4.846933 4.864 11.52 7.304533 17.578667 7.304533 6.690133 0 12.7488-2.440533 17.6128-7.304533 9.710933-9.728 9.710933-25.531733 0-35.874134L538.436267 143.8208zM51.8144 611.413333h107.383467v275.456h50.363733v-275.456h107.400533v-50.466133H51.2v50.466133h0.6144z m543.061333-50.466133h-133.495466c-16.384 0-32.170667 6.075733-44.305067 18.244267a63.1808 63.1808 0 0 0-18.193067 44.373333V823.637333c0 16.418133 6.058667 32.221867 18.193067 44.373334a62.907733 62.907733 0 0 0 44.305067 18.261333h133.4784c16.384 0 32.1536-6.0928 44.305066-18.261333a63.1808 63.1808 0 0 0 18.193067-44.373334V623.581867c0-16.418133-6.058667-32.238933-18.193067-44.3904a61.866667 61.866667 0 0 0-44.305066-18.244267z m12.731734 263.287467a12.6976 12.6976 0 0 1-3.652267 9.1136 12.629333 12.629333 0 0 1-9.096533 3.652266h-133.4784a12.629333 12.629333 0 0 1-9.1136-3.652266 12.6976 12.6976 0 0 1-3.6352-9.1136V624.1792c0-2.423467 0.6144-6.075733 3.6352-9.1136a12.629333 12.629333 0 0 1 9.1136-3.652267h133.4784a12.629333 12.629333 0 0 1 9.096533 3.652267 12.6976 12.6976 0 0 1 3.652267 9.1136v200.055467z m364.049066-244.445867a62.907733 62.907733 0 0 0-44.288-18.2272H755.0464V887.466667h50.363733v-142.882134h121.9584c16.384 0 32.1536-6.0928 44.288-18.261333a63.1808 63.1808 0 0 0 18.210134-44.373333v-57.173334c0-17.015467-6.075733-32.8192-18.210134-44.987733z m-32.1536 100.949333a12.6976 12.6976 0 0 1-3.6352 9.1136 12.629333 12.629333 0 0 1-9.096533 3.652267H804.181333v-82.090667h123.170134a12.629333 12.629333 0 0 1 9.096533 3.652267 12.6976 12.6976 0 0 1 3.652267 9.1136v56.558933h-0.6144z" fill="#ffffff" p-id="5151"></path></svg>