<?xml version="1.0" encoding="utf-8"?>
<!-- Generator: Adobe Illustrator 24.0.1, SVG Export Plug-In . SVG Version: 6.00 Build 0)  -->
<svg version="1.1" id="Layer_1" xmlns="http://www.w3.org/2000/svg" xmlns:xlink="http://www.w3.org/1999/xlink" x="0px" y="0px"
	 viewBox="0 0 286.44 197.11" style="enable-background:new 0 0 286.44 197.11;" xml:space="preserve">
<g>
	<g>
		<path style="fill:#B22234;" d="M138.74,26.89H48.51c2.77-1.75,5.65-3.39,8.64-4.8c0.56-0.23,1.07-0.51,1.64-0.73
			c0.45-0.23,0.96-0.45,1.41-0.62c0.56-0.28,1.13-0.51,1.69-0.73c9.66-3.9,20.22-6.1,31.28-6.16h0.45
			C110.23,13.85,125.7,18.65,138.74,26.89z"/>
		<path style="fill:#FFFFFF;" d="M154.67,39.94H32.58c4.74-5.03,10.05-9.37,15.92-13.04h90.24
			C144.62,30.57,149.93,34.91,154.67,39.94z"/>
		<path style="fill:#B22234;" d="M164.95,52.93H22.3c0.79-1.24,1.58-2.43,2.43-3.61c0.17-0.23,0.28-0.4,0.4-0.56
			c2.32-3.11,4.74-6.04,7.45-8.81h122.09C158.51,43.89,161.95,48.24,164.95,52.93z"/>
		<path style="fill:#FFFFFF;" d="M171.84,65.97H15.41c0.51-1.19,1.02-2.37,1.58-3.56c0.73-1.53,1.52-3.05,2.32-4.57
			c0.96-1.69,1.92-3.33,2.99-4.91h142.64C167.6,57.05,169.92,61.4,171.84,65.97z"/>
		<path style="fill:#B22234;" d="M176.07,79.02H11.18c1.07-4.52,2.48-8.87,4.24-13.04h156.42C173.59,70.15,175,74.5,176.07,79.02z"
			/>
		<path style="fill:#FFFFFF;" d="M178.05,92.06H9.2c0-0.62,0.06-1.24,0.17-1.81c0-0.73,0.11-1.41,0.23-2.09
			c0-0.28,0.06-0.56,0.11-0.85c0.06-0.68,0.11-1.36,0.23-1.98c0.34-2.15,0.73-4.24,1.24-6.32h164.89
			C177.09,83.25,177.77,87.6,178.05,92.06z"/>
		<path style="fill:#B22234;" d="M178.33,98.56c0,2.2-0.06,4.35-0.28,6.49H9.2c-0.23-2.15-0.28-4.29-0.28-6.49
			c0-2.2,0.06-4.35,0.28-6.49h168.85C178.27,94.21,178.33,96.35,178.33,98.56z"/>
		<path style="fill:#FFFFFF;" d="M178.05,105.05c-0.28,4.46-0.96,8.81-1.98,13.04H11.18c-1.02-4.24-1.69-8.58-1.98-13.04H178.05z"/>
		<path style="fill:#B22234;" d="M176.07,118.09c-1.07,4.52-2.48,8.87-4.24,13.04H15.41c-1.75-4.18-3.16-8.53-4.24-13.04H176.07z"/>
		<path style="fill:#FFFFFF;" d="M171.84,131.14c-1.92,4.57-4.24,8.92-6.89,13.04H22.3c-2.65-4.12-4.97-8.47-6.89-13.04H171.84z"/>
		<path style="fill:#B22234;" d="M164.95,144.18c-2.99,4.69-6.44,9.04-10.28,12.99H32.58c-3.84-3.95-7.28-8.3-10.28-12.99H164.95z"
			/>
		<path style="fill:#FFFFFF;" d="M154.67,157.17c-4.74,5.03-10.05,9.37-15.92,13.04H48.51c-5.87-3.67-11.18-8.02-15.92-13.04H154.67
			z"/>
		<path style="fill:#B22234;" d="M138.74,170.22c-13.04,8.24-28.52,13.04-45.12,13.04s-32.08-4.8-45.12-13.04H138.74z"/>
		<path style="fill:#3C3B6E;" d="M93.17,13.85v91.2H9.2c-0.23-2.15-0.28-4.29-0.28-6.49c0-2.2,0.06-4.35,0.28-6.49
			c0-0.62,0.06-1.24,0.17-1.81c0-0.73,0.11-1.41,0.23-2.09c0-0.28,0.06-0.56,0.11-0.85c0.06-0.68,0.11-1.36,0.23-1.98
			c0.34-2.15,0.73-4.24,1.24-6.32c1.07-4.52,2.48-8.87,4.24-13.04c0.51-1.19,1.02-2.37,1.58-3.56c0.73-1.53,1.52-3.05,2.32-4.57
			c0.96-1.69,1.92-3.33,2.99-4.91c0.79-1.24,1.58-2.43,2.43-3.61c0.17-0.23,0.28-0.4,0.4-0.56c2.32-3.11,4.74-6.04,7.45-8.81
			c4.74-5.03,10.05-9.37,15.92-13.04c2.77-1.75,5.65-3.39,8.64-4.8c0.56-0.23,1.07-0.51,1.64-0.73c0.45-0.23,0.96-0.45,1.41-0.62
			c0.56-0.28,1.13-0.51,1.69-0.73C71.55,16.11,82.11,13.91,93.17,13.85z"/>
		<polygon style="fill:#FFFFFF;" points="50.4,26.88 51.57,30.48 55.35,30.48 52.29,32.7 53.46,36.29 50.4,34.07 47.34,36.29 
			48.51,32.7 45.45,30.48 49.23,30.48 		"/>
		<polygon style="fill:#FFFFFF;" points="71.86,26.88 73.03,30.48 76.81,30.48 73.75,32.7 74.92,36.29 71.86,34.07 68.8,36.29 
			69.97,32.7 66.91,30.48 70.69,30.48 		"/>
		<path style="fill:#FFFFFF;" d="M31.45,52.93l0.56,1.64l-2.26-1.64l-0.79-0.56l-0.79,0.56l-2.32,1.64l0.56-1.64l0.62-1.92
			l-2.32-1.69c0.17-0.23,0.28-0.4,0.4-0.56h2.65l1.19-3.56l1.13,3.56h3.78l-3.05,2.26L31.45,52.93z"/>
		<polygon style="fill:#FFFFFF;" points="50.4,45.16 51.57,48.76 55.35,48.76 52.29,50.98 53.46,54.58 50.4,52.36 47.34,54.58 
			48.51,50.98 45.45,48.76 49.23,48.76 		"/>
		<polygon style="fill:#FFFFFF;" points="71.86,45.16 73.03,48.76 76.81,48.76 73.75,50.98 74.92,54.58 71.86,52.36 68.8,54.58 
			69.97,50.98 66.91,48.76 70.69,48.76 		"/>
		<polygon style="fill:#FFFFFF;" points="28.94,63.45 30.11,67.04 33.89,67.04 30.83,69.26 32,72.86 28.94,70.64 25.88,72.86 
			27.05,69.26 23.99,67.04 27.77,67.04 		"/>
		<polygon style="fill:#FFFFFF;" points="50.4,63.45 51.57,67.04 55.35,67.04 52.29,69.26 53.46,72.86 50.4,70.64 47.34,72.86 
			48.51,69.26 45.45,67.04 49.23,67.04 		"/>
		<polygon style="fill:#FFFFFF;" points="71.86,63.45 73.03,67.04 76.81,67.04 73.75,69.26 74.92,72.86 71.86,70.64 68.8,72.86 
			69.97,69.26 66.91,67.04 70.69,67.04 		"/>
		<path style="fill:#FFFFFF;" d="M9.6,88.17l0.96,2.99l-1.19-0.9C9.37,89.52,9.48,88.84,9.6,88.17z"/>
		<path style="fill:#FFFFFF;" d="M12.42,85.34l-2.71,1.98c0.06-0.68,0.11-1.36,0.23-1.98H12.42z"/>
		<polygon style="fill:#FFFFFF;" points="28.94,81.73 30.11,85.33 33.89,85.33 30.83,87.55 32,91.14 28.94,88.92 25.88,91.14 
			27.05,87.55 23.99,85.33 27.77,85.33 		"/>
		<polygon style="fill:#FFFFFF;" points="50.4,81.73 51.57,85.33 55.35,85.33 52.29,87.55 53.46,91.14 50.4,88.92 47.34,91.14 
			48.51,87.55 45.45,85.33 49.23,85.33 		"/>
		<polygon style="fill:#FFFFFF;" points="71.86,81.73 73.03,85.33 76.81,85.33 73.75,87.55 74.92,91.14 71.86,88.92 68.8,91.14 
			69.97,87.55 66.91,85.33 70.69,85.33 		"/>
		<path style="fill:#FFFFFF;" d="M64.09,26.89l0.11,0.28l-0.4-0.28l-2.65-1.92l-2.71,1.92l-0.4,0.28l0.11-0.28l1.07-3.28l-2.09-1.53
			c0.56-0.23,1.07-0.51,1.64-0.73h1.19l0.23-0.62c0.56-0.28,1.13-0.51,1.69-0.73l0.4,1.35h3.78l-3.05,2.26L64.09,26.89z"/>
		<polygon style="fill:#FFFFFF;" points="82.59,17.78 83.76,21.37 87.54,21.37 84.48,23.59 85.65,27.19 82.59,24.97 79.53,27.19 
			80.7,23.59 77.64,21.37 81.42,21.37 		"/>
		<polygon style="fill:#FFFFFF;" points="39.67,36.07 40.84,39.66 44.62,39.66 41.56,41.88 42.73,45.48 39.67,43.26 36.61,45.48 
			37.78,41.88 34.72,39.66 38.5,39.66 		"/>
		<polygon style="fill:#FFFFFF;" points="61.13,36.07 62.3,39.66 66.08,39.66 63.02,41.88 64.19,45.48 61.13,43.26 58.07,45.48 
			59.24,41.88 56.18,39.66 59.96,39.66 		"/>
		<polygon style="fill:#FFFFFF;" points="82.59,36.07 83.76,39.66 87.54,39.66 84.48,41.88 85.65,45.48 82.59,43.26 79.53,45.48 
			80.7,41.88 77.64,39.66 81.42,39.66 		"/>
		<path style="fill:#FFFFFF;" d="M20.1,60.16l1.19,3.61l-3.05-2.2l-1.24,0.85c0.73-1.53,1.52-3.05,2.32-4.57l0.06,0.11h3.78
			L20.1,60.16z"/>
		<polygon style="fill:#FFFFFF;" points="39.67,54.36 40.84,57.95 44.62,57.95 41.56,60.18 42.73,63.77 39.67,61.55 36.61,63.77 
			37.78,60.18 34.72,57.95 38.5,57.95 		"/>
		<polygon style="fill:#FFFFFF;" points="61.13,54.36 62.3,57.95 66.08,57.95 63.02,60.18 64.19,63.77 61.13,61.55 58.07,63.77 
			59.24,60.18 56.18,57.95 59.96,57.95 		"/>
		<polygon style="fill:#FFFFFF;" points="82.59,54.36 83.76,57.95 87.54,57.95 84.48,60.18 85.65,63.77 82.59,61.55 79.53,63.77 
			80.7,60.18 77.64,57.95 81.42,57.95 		"/>
		<polygon style="fill:#FFFFFF;" points="18.21,72.65 19.38,76.25 23.16,76.25 20.1,78.47 21.27,82.06 18.21,79.84 15.15,82.06 
			16.32,78.47 13.26,76.25 17.04,76.25 		"/>
		<polygon style="fill:#FFFFFF;" points="39.67,72.65 40.84,76.25 44.62,76.25 41.56,78.47 42.73,82.06 39.67,79.84 36.61,82.06 
			37.78,78.47 34.72,76.25 38.5,76.25 		"/>
		<polygon style="fill:#FFFFFF;" points="61.13,72.65 62.3,76.25 66.08,76.25 63.02,78.47 64.19,82.06 61.13,79.84 58.07,82.06 
			59.24,78.47 56.18,76.25 59.96,76.25 		"/>
		<polygon style="fill:#FFFFFF;" points="82.59,72.65 83.76,76.25 87.54,76.25 84.48,78.47 85.65,82.06 82.59,79.84 79.53,82.06 
			80.7,78.47 77.64,76.25 81.42,76.25 		"/>
		<polygon style="fill:#FFFFFF;" points="18.21,90.73 19.38,94.33 23.16,94.33 20.1,96.55 21.27,100.14 18.21,97.92 15.15,100.14 
			16.32,96.55 13.26,94.33 17.04,94.33 		"/>
		<polygon style="fill:#FFFFFF;" points="39.67,90.73 40.84,94.33 44.62,94.33 41.56,96.55 42.73,100.14 39.67,97.92 36.61,100.14 
			37.78,96.55 34.72,94.33 38.5,94.33 		"/>
		<polygon style="fill:#FFFFFF;" points="61.13,90.73 62.3,94.33 66.08,94.33 63.02,96.55 64.19,100.14 61.13,97.92 58.07,100.14 
			59.24,96.55 56.18,94.33 59.96,94.33 		"/>
		<polygon style="fill:#FFFFFF;" points="82.59,90.73 83.76,94.33 87.54,94.33 84.48,96.55 85.65,100.14 82.59,97.92 79.53,100.14 
			80.7,96.55 77.64,94.33 81.42,94.33 		"/>
	</g>
	<g>
		<path style="fill:#FFFFFF;" d="M235.17,25.2v146.71c-12.42,7.23-26.94,11.35-42.35,11.35c-15.42,0-29.93-4.12-42.35-11.35V25.2
			c12.42-7.23,26.94-11.35,42.35-11.35C208.24,13.85,222.75,17.97,235.17,25.2z"/>
		<path style="fill:#FF0000;" d="M210.09,112.99L226,100.11l-3.45-1.59c-0.68-0.31-1.04-1.08-0.83-1.8l2.91-10.28l-9.31,1.94
			c-0.68,0.14-1.36-0.26-1.56-0.93l-1.24-4.17l-7.67,8.6c-0.88,0.98-2.49,0.19-2.25-1.1l3.24-17.58l-4.89,2.48
			c-0.81,0.41-1.81,0.1-2.25-0.7l-5.88-10.79l-5.88,10.79c-0.44,0.8-1.43,1.11-2.25,0.7l-4.89-2.48l3.24,17.58
			c0.24,1.3-1.38,2.09-2.25,1.1l-7.67-8.6l-1.24,4.17c-0.2,0.67-0.88,1.08-1.56,0.93l-9.31-1.94l2.91,10.28
			c0.2,0.72-0.15,1.49-0.83,1.8l-3.45,1.59l15.91,12.88c0.71,0.57,0.99,1.52,0.71,2.39l-1.41,4.36l15.45-2.16
			c0.89-0.12,1.67,0.58,1.65,1.47l-0.45,16.54h1.32h1.32l-0.45-16.54c-0.02-0.9,0.76-1.6,1.65-1.47l15.45,2.16l-1.41-4.36
			C209.1,114.51,209.38,113.56,210.09,112.99z"/>
		<path style="fill:#FF0000;" d="M150.47,25.2v146.71c-25.3-14.68-42.35-42.01-42.35-73.35S125.17,39.88,150.47,25.2z"/>
		<path style="fill:#FF0000;" d="M277.52,98.56c0,31.34-17.05,58.67-42.35,73.35V25.2C260.47,39.88,277.52,67.21,277.52,98.56z"/>
	</g>
</g>
</svg>
